<svg width="128" height="128" viewBox="0 0 128 128" fill="none" xmlns="http://www.w3.org/2000/svg">
<g clip-path="url(#clip0_17_349)">
<path d="M92.1921 14.9719C92.574 13.8404 92.2472 12.5864 91.3586 11.7961C88.3808 9.13975 80.8536 3.545 69.5518 2.71766C56.8951 1.79015 49.0595 5.21823 45.1013 7.75961C43.3939 8.85407 43.2985 11.3398 44.8957 12.5938L77.1377 37.9148C79.9797 40.1446 84.1472 38.8832 85.3075 35.4402L92.1921 14.9719Z" fill="#F76945" style="fill:#F76945;fill:color(display-p3 0.9700 0.4113 0.2716);fill-opacity:1;"/>
<path d="M12.7123 90.1294C11.3941 91.0235 10.7993 92.6707 11.2252 94.2178C12.4516 98.6699 16.1051 107.934 26.4742 116.363C36.8434 124.792 49.1108 125.701 54.3541 125.571C55.922 125.534 57.2879 124.492 57.7616 122.978L78.4301 56.8837C79.9209 52.1125 74.6298 48.1094 70.5211 50.8994L12.7123 90.1294Z" fill="#F76945" style="fill:#F76945;fill:color(display-p3 0.9700 0.4113 0.2716);fill-opacity:1;"/>
<path d="M27.8184 20.3838C26.805 19.9794 25.6704 20.0461 24.712 20.573C20.886 22.6766 11.0897 29.158 6.03729 42.4734C2.13785 52.7353 3.5111 64.0843 4.58326 69.6346C4.93575 71.4488 6.8304 72.495 8.53411 71.8235L70.5471 47.3595C74.9752 45.612 74.9936 39.2864 70.5728 37.5167L27.8184 20.3838Z" fill="#F76945" style="fill:#F76945;fill:color(display-p3 0.9700 0.4113 0.2716);fill-opacity:1;"/>
<path d="M119.809 67.7465C121.6 68.9745 124.053 67.8912 124.365 65.7245C125.188 59.9888 125.9 50.0051 122.614 42.4737C118.233 32.438 110.798 26.2497 107.269 23.7342C106.153 22.9403 104.648 23.0219 103.623 23.9383L87.9741 37.9623C85.4185 40.2514 85.6829 44.3584 88.5102 46.2987L119.809 67.7539V67.7465Z" fill="#F76945" style="fill:#F76945;fill:color(display-p3 0.9700 0.4113 0.2716);fill-opacity:1;"/>
<path d="M76.0834 121.284C75.9218 123.15 77.486 124.693 79.3293 124.493C85.2592 123.851 97.4422 121.473 106.57 112.662C115.456 104.088 118.346 93.9074 119.187 89.856C119.414 88.7616 119.143 87.6226 118.445 86.7544L91.0827 52.6332C88.1195 48.938 82.2116 50.7633 81.8004 55.501L76.0797 121.284H76.0834Z" fill="#F76945" style="fill:#F76945;fill:color(display-p3 0.9700 0.4113 0.2716);fill-opacity:1;"/>
</g>
<defs>
<clipPath id="clip0_17_349">
<rect width="128" height="128" fill="white" style="fill:white;fill-opacity:1;"/>
</clipPath>
</defs>
</svg>
